# xmcd
#
# Track frame offsets:
#	150
#	15115
#	31545
#	51964
#	67715
#	82921
#	98825
#	112589
#	163712
#	178596
#	191169
#	206694
#	221788
#	235006
#	248046
#	258419
#	271762
#	288373
#	301429
#	312533
#
# Disc length: 4321 seconds
#
# Revision: 0
# Processed by: cddbd v1.5.2PL0 Copyright (c) Steve Scherf et al.
# Submitted via: audiograbber 1.82.02
#
DISCID=0210df14
DTITLE=Various Artist - Simply Cuba - Disc 2 Cuban Grooves 
DYEAR=2009
DGENRE=
TTITLE0=Beny Moré - Encantado De La Vida
TTITLE1=Compay Segundo - Me Diras Que Sabroso
TTITLE2=Ibrahim Ferrer - Compositor Confundido 
TTITLE3=Compay Segundo - Maria En La Playa 
TTITLE4=Omara Portuondo - Veinte Años 
TTITLE5=Trío Matamoros - Son De La Loma 
TTITLE6=Duo Los Compadres feat. Compay Segundo - Como El Macao, Candela 
TTITLE7=Estrellas de Areito - Hasta Pantoja Baila Mi Son 
TTITLE8=Orquesta Aragon - Señor Juez Jorge Zamora 
TTITLE9=Orquesta Sensación - La Paella 
TTITLE10=Orquesta Arcano Y Sus Maravillas - Mambo 
TTITLE11=Trio Habaney - Adios Compay Gato 
TTITLE12=Orquesta América - Me La Dijo Adela 
TTITLE13=Orquesta Fajardo Y Sus Estrellas - Boniato 
TTITLE14=Cuarteto D'aida - Oye Mi Ritmo 
TTITLE15=Rubén González - La Basura 
TTITLE16=Compay Segundo - Como La Avelleneda
TTITLE17=Rubén González - Poco Pelo
TTITLE18=Compay Segundo - La Mujer Del Peso
TTITLE19=Beny Moré - Babarabatiri 
EXTD=
EXTT0=
EXTT1=
EXTT2=
EXTT3=
EXTT4=
EXTT5=
EXTT6=
EXTT7=
EXTT8=
EXTT9=
EXTT10=
EXTT11=
EXTT12=
EXTT13=
EXTT14=
EXTT15=
EXTT16=
EXTT17=
EXTT18=
EXTT19=
PLAYORDER=
